<svg width="68" height="68" viewBox="0 0 68 68" fill="none" xmlns="http://www.w3.org/2000/svg">
<circle cx="34" cy="34" r="34" fill="url(#paint0_linear_498_6128)"/>
<path d="M45.0848 33.7803C46.1685 32.9323 46.9596 31.7694 47.3478 30.4535C47.7361 29.1376 47.7023 27.734 47.2512 26.4381C46.8 25.1422 45.9539 24.0183 44.8306 23.2229C43.7073 22.4274 42.3626 22 40.9836 22C39.6046 22 38.2599 22.4274 37.1366 23.2229C36.0133 24.0183 35.1672 25.1422 34.716 26.4381C34.2649 27.734 34.2311 29.1376 34.6194 30.4535C35.0077 31.7694 35.7987 32.9323 36.8825 33.7803C35.0254 34.5202 33.4051 35.7474 32.1942 37.3311C30.9833 38.9148 30.2273 40.7956 30.0067 42.7731C29.9907 42.9174 30.0035 43.0635 30.0443 43.203C30.0851 43.3424 30.1531 43.4725 30.2445 43.5859C30.429 43.8147 30.6973 43.9613 30.9905 43.9934C31.2837 44.0254 31.5777 43.9404 31.8078 43.7569C32.0379 43.5734 32.1853 43.3065 32.2175 43.0149C32.4603 40.8659 33.4906 38.8811 35.1118 37.4398C36.7329 35.9985 38.8312 35.2018 41.0057 35.2018C43.1802 35.2018 45.2785 35.9985 46.8996 37.4398C48.5208 38.8811 49.5512 40.8659 49.7939 43.0149C49.8239 43.2851 49.9536 43.5345 50.1577 43.7152C50.3618 43.8959 50.626 43.995 50.8993 43.9934H51.0209C51.3107 43.9602 51.5755 43.8145 51.7578 43.588C51.94 43.3615 52.0248 43.0725 51.9937 42.7841C51.7721 40.801 51.0119 38.9154 49.7948 37.3292C48.5777 35.7431 46.9495 34.5163 45.0848 33.7803V33.7803ZM40.9836 32.9997C40.1091 32.9997 39.2542 32.7418 38.527 32.2586C37.7999 31.7754 37.2331 31.0886 36.8985 30.2851C36.5638 29.4815 36.4762 28.5974 36.6468 27.7443C36.8175 26.8913 37.2386 26.1078 37.857 25.4928C38.4754 24.8778 39.2632 24.4589 40.121 24.2893C40.9787 24.1196 41.8678 24.2067 42.6757 24.5395C43.4837 24.8723 44.1743 25.436 44.6601 26.1591C45.146 26.8823 45.4053 27.7325 45.4053 28.6022C45.4053 29.7685 44.9395 30.887 44.1102 31.7117C43.281 32.5364 42.1563 32.9997 40.9836 32.9997Z" fill="white"/>
<rect x="15" y="33" width="14" height="2" rx="1" fill="white"/>
<rect x="23" y="27" width="14" height="2" rx="1" transform="rotate(90 23 27)" fill="white"/>
<defs>
<linearGradient id="paint0_linear_498_6128" x1="14.5" y1="13.5" x2="55.5" y2="60" gradientUnits="userSpaceOnUse">
<stop stop-color="#FF6D75"/>
<stop offset="1" stop-color="#C7BAFF"/>
</linearGradient>
</defs>
</svg>
