<svg width="19" height="23" viewBox="0 0 19 23" fill="none" xmlns="http://www.w3.org/2000/svg">
<g id="Group">
<path id="Vector" d="M15.6282 12.215C15.6006 9.30931 18.0105 7.90466 18.1069 7.84958C16.7574 5.86654 14.6504 5.60489 13.9068 5.56358C12.1165 5.37079 10.4227 6.61018 9.51381 6.61018C8.60492 6.61018 7.20027 5.57735 5.72677 5.61866C3.7575 5.64621 1.96727 6.74789 0.961979 8.49682C-1.06237 12.0084 0.438679 17.2277 2.42171 20.0783C3.38569 21.4692 4.52868 23.0391 6.0435 22.984C7.50323 22.9289 8.05408 22.0475 9.81677 22.0475C11.5795 22.0475 12.0752 22.984 13.6176 22.9702C15.1875 22.9427 16.179 21.538 17.1292 20.1471C18.2309 18.5221 18.6991 16.9522 18.7266 16.8696C18.6853 16.8558 15.6557 15.6991 15.6282 12.215Z" fill="#171B25"/>
<path id="Vector_2" d="M12.7363 3.6631C13.5351 2.69913 14.0859 1.33579 13.9344 0C12.7776 0.0413132 11.373 0.771179 10.5467 1.73515C9.8031 2.60273 9.14208 3.97984 9.32111 5.28809C10.6156 5.39826 11.9376 4.64085 12.7363 3.6631Z" fill="#171B25"/>
</g>
</svg>
