<svg width="122" height="18" viewBox="0 0 122 18" fill="none" xmlns="http://www.w3.org/2000/svg">
<g id="Layer_1" clip-path="url(#clip0_157_23915)">
<path id="Vector" d="M81.7719 0C79.7384 0 78.0709 0.677786 76.7423 1.99242C75.4137 3.3116 74.79 4.96285 74.79 6.96892C74.79 8.97498 75.4498 10.6035 76.7603 11.8908C78.0708 13.1782 79.7881 13.8469 81.8442 13.8423C83.3671 13.8423 84.7228 13.4556 85.9068 12.7096C87.0908 11.9409 87.9133 10.8173 88.3923 9.33434L84.7861 9.34344C84.5692 9.87111 84.1851 10.276 83.6518 10.5671C83.1186 10.8537 82.5176 11.022 81.8397 11.0265C80.8952 11.0265 80.0954 10.7672 79.4672 10.2168C78.8391 9.66641 78.4504 8.87945 78.351 7.8514L88.6318 7.83321C88.799 5.58605 88.2612 3.721 86.9778 2.24261C85.6944 0.759666 83.9727 0 81.7719 0ZM78.5182 5.29037C78.7577 4.5489 79.1193 3.94845 79.6751 3.52085C80.2309 3.09325 80.9088 2.84761 81.7539 2.84761C82.5989 2.84761 83.2542 3.06141 83.81 3.51175C84.3658 3.96209 84.7319 4.5398 84.9262 5.27672L78.5137 5.29037H78.5182Z" fill="#171B25"/>
<path id="Vector_2" d="M115.239 0.231955C111.524 0.241053 108.524 3.10686 108.528 7.03711C108.537 10.9401 111.502 13.8241 115.262 13.815C119.044 13.8059 122.004 10.9401 121.995 7.00982C121.986 3.08412 118.972 0.222857 115.235 0.231955H115.239ZM115.262 10.5989C113.382 10.5989 111.922 9.18419 111.918 7.03256C111.913 4.88093 113.368 3.45713 115.248 3.45258C117.128 3.44803 118.588 4.89003 118.592 7.01892C118.597 9.1478 117.142 10.5944 115.262 10.5989Z" fill="#171B25"/>
<path id="Vector_3" d="M60.5819 4.98116L63.1216 13.5831H63.2029L66.2623 13.5786H66.321L68.8472 4.96752L71.3869 13.5695H74.5231L71.179 2.26092C70.8265 1.09185 69.9046 0.327637 68.8381 0.327637C68.3049 0.327637 67.8123 0.518691 67.4056 0.855309C66.9944 1.19193 66.669 1.69231 66.5063 2.27002L64.7258 8.37919L62.9227 2.27912C62.5702 1.11005 61.6484 0.345832 60.5819 0.345832C60.0486 0.345832 59.5561 0.536886 59.1493 0.873505C58.7381 1.21012 58.4127 1.7105 58.2501 2.28821L54.9512 13.6059H58.0693L60.5954 4.99026L60.5819 4.98116Z" fill="#171B25"/>
<path id="Vector_4" d="M94.6053 4.9128L97.145 13.5148H97.2263L100.286 13.5102H100.344L102.871 4.89916L105.41 13.5011H108.546L105.202 2.19256C104.85 1.02349 103.928 0.259277 102.862 0.259277C102.328 0.259277 101.836 0.450331 101.429 0.78695C101.018 1.12357 100.692 1.62395 100.53 2.20166L98.7493 8.31083L96.9462 2.21076C96.5937 1.04169 95.6718 0.277473 94.6053 0.277473C94.0721 0.277473 93.5795 0.468527 93.1728 0.805145C92.7615 1.14176 92.4362 1.64214 92.2735 2.21985L88.9746 13.5375H92.0927L94.6189 4.9219L94.6053 4.9128Z" fill="#171B25"/>
<path id="Vector_5" d="M6.69719 10.2487L3.70108 0.736946L0 0.746043L3.94059 12.0455C4.35634 13.2146 5.44542 13.9788 6.70171 13.9788C7.32985 13.9788 7.91281 13.7832 8.39634 13.4511C8.87988 13.1145 9.26399 12.6141 9.45831 12.0364L13.3537 0.71875L9.67522 0.727848L6.69267 10.2487H6.69719Z" fill="#171925"/>
<path id="Vector_6" d="M20.6381 0.418457C18.6046 0.418457 16.9371 1.09624 15.6085 2.41088C14.2799 3.73006 13.6562 5.38131 13.6562 7.38737C13.6562 9.37069 14.316 11.0219 15.6265 12.3093C16.9371 13.5966 18.6543 14.2653 20.7104 14.2608C22.2334 14.2608 23.5891 13.8741 24.773 13.1281C25.957 12.3593 26.7795 11.2357 27.2585 9.7528L23.6523 9.7619C23.4354 10.2896 23.0513 10.6944 22.5181 10.9856C21.9848 11.2721 21.3838 11.4404 20.7059 11.445C19.7614 11.445 18.9616 11.1857 18.3334 10.6353C17.7053 10.0849 17.3167 9.29791 17.2172 8.26986L27.498 8.25166C27.6652 6.00451 27.1274 4.13946 25.844 2.66107C24.5606 1.18267 22.8389 0.418457 20.6381 0.423006V0.418457ZM17.3799 5.70883C17.6194 4.96736 17.981 4.3669 18.5368 3.93931C19.0926 3.50716 19.7705 3.26607 20.6155 3.26607C21.4606 3.26607 22.1159 3.47987 22.6717 3.93021C23.2275 4.3851 23.5936 4.95826 23.7879 5.69518L17.3754 5.70883H17.3799Z" fill="#171925"/>
<path id="Vector_7" d="M32.8627 2.99783V0.682438L29.374 0.686987L29.4011 13.9334H32.8853L32.8717 8.01981C32.8717 6.55962 33.2559 5.50882 34.0015 4.86288C34.7517 4.23968 35.7413 3.9531 36.975 3.94855H37.8201L37.8156 0.67334H37.0428C35.0815 0.677889 33.6807 1.2556 32.8627 3.00238V2.99783Z" fill="#171925"/>
<path id="Vector_8" d="M52.8412 0.618652L49.0904 0.623201V0.650495L45.7644 8.40182L42.4384 0.664141L38.7373 0.66869L43.9342 12.1365L41.3086 18L45.0097 17.9909L52.8412 0.618652Z" fill="#171925"/>
</g>
<defs>
<clipPath id="clip0_157_23915">
<rect width="122" height="18" fill="white"/>
</clipPath>
</defs>
</svg>
