<svg width="102" height="16" viewBox="0 0 102 16" fill="none" xmlns="http://www.w3.org/2000/svg">
<g clip-path="url(#clip0_5142_10695)">
<path d="M68.3666 2C66.6664 2 65.2723 2.60248 64.1615 3.77104C63.0507 4.94364 62.5293 6.41142 62.5293 8.19459C62.5293 9.97776 63.0809 11.4253 64.1766 12.5696C65.2723 13.7139 66.708 14.3083 68.4271 14.3043C69.7003 14.3043 70.8338 13.9606 71.8237 13.2974C72.8136 12.6141 73.5012 11.6154 73.9017 10.2972L70.8867 10.3053C70.7053 10.7743 70.3842 11.1342 69.9383 11.393C69.4925 11.6477 68.99 11.7973 68.4233 11.8014C67.6336 11.8014 66.9649 11.5709 66.4397 11.0816C65.9146 10.5924 65.5896 9.89285 65.5065 8.97902L74.1019 8.96285C74.2417 6.96538 73.7921 5.30756 72.7191 3.99343C71.6461 2.67526 70.2066 2 68.3666 2ZM65.6463 6.70255C65.8466 6.04347 66.1488 5.50973 66.6135 5.12964C67.0782 4.74956 67.645 4.53121 68.3515 4.53121C69.058 4.53121 69.6059 4.72125 70.0706 5.12156C70.5353 5.52186 70.8413 6.03538 71.0038 6.69042L65.6425 6.70255H65.6463Z" fill="#353535"/>
<path d="M96.3479 2.20632C93.2423 2.2144 90.7335 4.76179 90.7373 8.25535C90.7449 11.7246 93.2234 14.2882 96.3668 14.2801C99.5292 14.272 102.004 11.7246 101.996 8.23108C101.989 4.74157 99.4687 2.19823 96.3442 2.20632H96.3479ZM96.3668 11.4214C94.7951 11.4214 93.5747 10.1639 93.571 8.2513C93.5672 6.33874 94.7838 5.07314 96.3555 5.06909C97.9272 5.06505 99.1476 6.34683 99.1514 8.23917C99.1551 10.1315 97.9386 11.4173 96.3668 11.4214Z" fill="#353535"/>
<path d="M50.651 6.42748L52.7743 14.0737H52.8423L55.4002 14.0696H55.4493L57.5613 6.41535L59.6847 14.0615H62.3067L59.5109 4.00949C59.2162 2.97032 58.4454 2.29102 57.5538 2.29102C57.1079 2.29102 56.6961 2.46084 56.3561 2.76006C56.0123 3.05927 55.7402 3.50406 55.6042 4.01758L54.1156 9.44795L52.6081 4.02566C52.3134 2.98649 51.5426 2.30719 50.651 2.30719C50.2052 2.30719 49.7933 2.47702 49.4533 2.77623C49.1095 3.07545 48.8375 3.52023 48.7014 4.03375L45.9434 14.0939H48.5503L50.6623 6.43557L50.651 6.42748Z" fill="#353535"/>
<path d="M79.0963 6.36694L81.2197 14.0131H81.2877L83.8455 14.0091H83.8946L86.0066 6.35481L88.13 14.001H90.752L87.9562 3.94894C87.6615 2.90977 86.8907 2.23047 85.9991 2.23047C85.5532 2.23047 85.1414 2.40029 84.8014 2.69951C84.4576 2.99873 84.1855 3.44351 84.0495 3.95703L82.5609 9.38741L81.0534 3.96512C80.7587 2.92595 79.988 2.24664 79.0963 2.24664C78.6505 2.24664 78.2387 2.41647 77.8986 2.71568C77.5548 3.0149 77.2828 3.45968 77.1468 3.9732L74.3887 14.0334H76.9956L79.1076 6.37502L79.0963 6.36694Z" fill="#353535"/>
<path d="M5.59929 11.11L3.09434 2.65509L0 2.66318L3.29459 12.7071C3.64218 13.7463 4.55273 14.4256 5.60307 14.4256C6.12824 14.4256 6.61562 14.2518 7.01989 13.9566C7.42416 13.6574 7.74531 13.2126 7.90777 12.6991L11.1646 2.63892L8.08912 2.647L5.59551 11.11H5.59929Z" fill="#353535"/>
<path d="M17.2553 2.37207C15.5551 2.37207 14.1609 2.97455 13.0502 4.14311C11.9394 5.31571 11.418 6.78349 11.418 8.56666C11.418 10.3296 11.9696 11.7974 13.0653 12.9417C14.1609 14.086 15.5967 14.6804 17.3157 14.6763C18.589 14.6763 19.7224 14.3326 20.7123 13.6695C21.7022 12.9862 22.3899 11.9874 22.7903 10.6693L19.7753 10.6774C19.594 11.1464 19.2728 11.5063 18.827 11.765C18.3812 12.0198 17.8787 12.1694 17.312 12.1734C16.5223 12.1734 15.8536 11.943 15.3284 11.4537C14.8032 10.9644 14.4783 10.2649 14.3952 9.3511L22.9906 9.33492C23.1304 7.33745 22.6808 5.67963 21.6078 4.3655C20.5348 3.05137 19.0953 2.37207 17.2553 2.37611V2.37207ZM14.5312 7.07462C14.7314 6.41554 15.0337 5.8818 15.4984 5.50171C15.9631 5.11758 16.5299 4.90328 17.2364 4.90328C17.9429 4.90328 18.4908 5.09332 18.9555 5.49363C19.4202 5.89797 19.7262 6.40745 19.8887 7.06249L14.5274 7.07462H14.5312Z" fill="#353535"/>
<path d="M27.4754 4.6646V2.60648L24.5586 2.61052L24.5813 14.3851H27.4943L27.4829 9.12859C27.4829 7.83064 27.8041 6.89659 28.4275 6.32242C29.0546 5.76847 29.8821 5.51373 30.9135 5.50969H31.62L31.6163 2.59839H30.9702C29.3305 2.60243 28.1592 3.11595 27.4754 4.66864V4.6646Z" fill="#353535"/>
<path d="M44.1785 2.5498L41.0426 2.55385V2.57811L38.2618 9.46818L35.4811 2.59024L32.3867 2.59428L36.7316 12.7879L34.5365 17.9999L37.6309 17.9918L44.1785 2.5498Z" fill="#353535"/>
</g>
<defs>
<clipPath id="clip0_5142_10695">
<rect width="102" height="16" fill="white"/>
</clipPath>
</defs>
</svg>
