<svg width="25" height="24" viewBox="0 0 25 24" fill="none" xmlns="http://www.w3.org/2000/svg">
<path fill-rule="evenodd" clip-rule="evenodd" d="M10.121 3H14.545C15.3635 2.99999 16.0391 2.99998 16.5891 3.04565C17.1604 3.0931 17.6853 3.19496 18.1769 3.45035C18.9075 3.82985 19.5032 4.42553 19.8827 5.1561C20.138 5.64774 20.2399 6.17258 20.2874 6.74393C20.333 7.29393 20.333 7.96946 20.333 8.78798V17.6227C20.333 18.5855 20.333 19.3755 20.2803 19.9759C20.2305 20.5418 20.1208 21.2088 19.681 21.6916C19.1406 22.2847 18.3483 22.5824 17.5511 22.4919C16.9021 22.4182 16.3803 21.9884 15.9702 21.5953C15.5352 21.1783 15.0149 20.5837 14.3809 19.8591L14.0037 19.428C13.5692 18.9314 13.2851 18.6081 13.0497 18.3821C12.8217 18.1631 12.7136 18.1107 12.6592 18.0919C12.4479 18.019 12.2182 18.019 12.0068 18.0919C11.9524 18.1107 11.8443 18.1631 11.6163 18.3821C11.3809 18.6081 11.0968 18.9314 10.6623 19.428L10.2851 19.8591C9.6511 20.5837 9.13085 21.1782 8.69577 21.5953C8.28572 21.9884 7.7639 22.4182 7.11497 22.4919C6.31771 22.5824 5.52546 22.2847 4.98506 21.6916C4.54519 21.2088 4.43549 20.5418 4.38575 19.9759C4.33298 19.3755 4.33299 18.5855 4.33301 17.6227V8.78799C4.333 7.96947 4.33298 7.29393 4.37866 6.74393C4.42611 6.17258 4.52797 5.64774 4.78336 5.1561C5.16286 4.42553 5.75854 3.82985 6.48911 3.45035C6.98075 3.19496 7.50559 3.0931 8.07694 3.04565C8.62694 2.99998 9.30248 2.99999 10.121 3ZM8.24246 5.03879C7.79702 5.07578 7.56964 5.1428 7.41106 5.22517C7.04577 5.41493 6.74793 5.71277 6.55818 6.07805C6.47581 6.23663 6.40879 6.46401 6.3718 6.90945C6.33381 7.36686 6.33301 7.95898 6.33301 8.83V17.5726C6.33301 18.5978 6.33395 19.2988 6.37807 19.8008C6.41438 20.2139 6.47229 20.3436 6.47748 20.3594C6.58021 20.4633 6.72334 20.5171 6.86906 20.5065C6.88335 20.4981 7.01237 20.4386 7.31172 20.1516C7.67545 19.8029 8.13779 19.2759 8.8129 18.5044L9.18493 18.0792C9.58395 17.6232 9.9253 17.233 10.2312 16.9393C10.5516 16.6317 10.9062 16.3559 11.3544 16.2013C11.9885 15.9825 12.6775 15.9825 13.3116 16.2013C13.7598 16.3559 14.1144 16.6317 14.4348 16.9393C14.7407 17.233 15.0821 17.6232 15.4811 18.0792L15.8531 18.5044C16.5282 19.2759 16.9906 19.8029 17.3543 20.1516C17.6536 20.4386 17.7827 20.4981 17.797 20.5065C17.9427 20.5171 18.0858 20.4633 18.1885 20.3594C18.1937 20.3436 18.2516 20.2139 18.2879 19.8008C18.3321 19.2988 18.333 18.5978 18.333 17.5726V8.83C18.333 7.95898 18.3322 7.36686 18.2942 6.90945C18.2572 6.46401 18.1902 6.23663 18.1078 6.07805C17.9181 5.71277 17.6202 5.41493 17.255 5.22517C17.0964 5.1428 16.869 5.07578 16.4236 5.03879C15.9661 5.0008 15.374 5 14.503 5H10.163C9.29199 5 8.69987 5.0008 8.24246 5.03879Z" fill="#353535"/>
</svg>
