<svg width="20" height="20" viewBox="0 0 20 20" fill="none" xmlns="http://www.w3.org/2000/svg">
<path fill-rule="evenodd" clip-rule="evenodd" d="M5.32726 3.19187C5.86984 2.29712 6.84148 1.66666 7.9544 1.66666H12.0459C13.1588 1.66666 14.1305 2.29712 14.6731 3.19187C14.8384 3.4646 15.0236 3.75098 15.2143 4.01277C15.3056 4.13803 15.4838 4.23809 15.7311 4.23809H15.8333C17.6743 4.23809 19.1668 5.73056 19.1668 7.57143V14.1667C19.1668 16.0076 17.6744 17.5 15.8335 17.5H4.16683C2.32588 17.5 0.833496 16.0076 0.833496 14.1667V7.57143C0.833496 5.73057 2.3256 4.23809 4.16663 4.23809H4.26881C4.51609 4.23809 4.69473 4.13803 4.786 4.01277C4.97677 3.75098 5.16188 3.4646 5.32726 3.19187ZM7.9544 3.33333C7.4891 3.33333 7.02813 3.60132 6.75238 4.05606C6.57113 4.35497 6.35966 4.68324 6.13299 4.99431C5.67563 5.62195 4.95353 5.90476 4.26921 5.90476H4.16703C3.24664 5.90476 2.50016 6.65087 2.50016 7.57143V14.1667C2.50016 15.0871 3.24635 15.8333 4.16683 15.8333H15.8335C16.754 15.8333 17.5002 15.0871 17.5002 14.1667V7.57143C17.5002 6.65087 16.7541 5.90476 15.8337 5.90476H15.7315C15.0472 5.90476 14.3247 5.62195 13.8673 4.99431C13.6407 4.68324 13.4292 4.35497 13.2479 4.05606C12.9722 3.60132 12.5112 3.33333 12.0459 3.33333H7.9544ZM10.0002 7.5C8.61945 7.5 7.50016 8.61929 7.50016 10C7.50016 11.3807 8.61945 12.5 10.0002 12.5C11.3809 12.5 12.5002 11.3807 12.5002 10C12.5002 8.61929 11.3809 7.5 10.0002 7.5ZM5.8335 10C5.8335 7.69881 7.69898 5.83333 10.0002 5.83333C12.3013 5.83333 14.1668 7.69881 14.1668 10C14.1668 12.3012 12.3013 14.1667 10.0002 14.1667C7.69898 14.1667 5.8335 12.3012 5.8335 10Z" fill="#353535"/>
</svg>
