<svg width="24" height="24" viewBox="0 0 24 24" fill="none" xmlns="http://www.w3.org/2000/svg">
<path fill-rule="evenodd" clip-rule="evenodd" d="M5.06341 5.06365C5.41488 4.71218 5.98473 4.71218 6.3362 5.06365L11.6998 10.4273L17.0634 5.06365C17.4149 4.71218 17.9847 4.71218 18.3362 5.06365C18.6877 5.41512 18.6877 5.98497 18.3362 6.33644L12.9726 11.7L18.3362 17.0637C18.6877 17.4151 18.6877 17.985 18.3362 18.3364C17.9847 18.6879 17.4149 18.6879 17.0634 18.3364L11.6998 12.9728L6.3362 18.3364C5.98473 18.6879 5.41488 18.6879 5.06341 18.3364C4.71194 17.985 4.71194 17.4151 5.06341 17.0637L10.427 11.7L5.06341 6.33644C4.71194 5.98497 4.71194 5.41512 5.06341 5.06365Z" fill="white"/>
</svg>
