<svg width="24" height="24" viewBox="0 0 24 24" fill="none" xmlns="http://www.w3.org/2000/svg">
<path fill-rule="evenodd" clip-rule="evenodd" d="M5 4H16C16.5523 4 17 4.44772 17 5V15C17 15.5523 16.5523 16 16 16H5C4.44772 16 4 15.5523 4 15V5C4 4.44772 4.44772 4 5 4ZM2 5C2 3.34315 3.34315 2 5 2H16C17.6569 2 19 3.34315 19 5V15C19 16.6569 17.6569 18 16 18H5C3.34315 18 2 16.6569 2 15V5ZM8 22C6.34315 22 5 20.6569 5 19H7C7 19.5523 7.44772 20 8 20H20C20.5523 20 21 19.5523 21 19V8C21 7.44772 20.5523 7 20 7V5C21.6569 5 23 6.34315 23 8V19C23 20.6569 21.6569 22 20 22H8Z" fill="#353535"/>
</svg>
