<svg width="24" height="24" viewBox="0 0 24 24" fill="none" xmlns="http://www.w3.org/2000/svg">
<path fill-rule="evenodd" clip-rule="evenodd" d="M11.9996 3.1001C12.4967 3.1001 12.8996 3.50304 12.8996 4.0001V12.8273L15.3632 10.3637C15.7147 10.0122 16.2846 10.0122 16.636 10.3637C16.9875 10.7152 16.9875 11.285 16.636 11.6365L12.636 15.6365C12.4673 15.8053 12.2383 15.9001 11.9996 15.9001C11.7609 15.9001 11.532 15.8053 11.3632 15.6365L7.36324 11.6365C7.01177 11.285 7.01177 10.7152 7.36324 10.3637C7.71471 10.0122 8.28456 10.0122 8.63603 10.3637L11.0996 12.8273V4.0001C11.0996 3.50304 11.5026 3.1001 11.9996 3.1001ZM3.99964 14.1001C4.49669 14.1001 4.89964 14.503 4.89964 15.0001C4.89964 15.9725 4.904 16.3273 4.9592 16.6049C5.20381 17.8346 6.16512 18.7959 7.39486 19.0405C7.6724 19.0957 8.02719 19.1001 8.99964 19.1001H14.9996C15.9721 19.1001 16.3269 19.0957 16.6044 19.0405C17.8342 18.7959 18.7955 17.8346 19.0401 16.6049C19.0953 16.3273 19.0996 15.9725 19.0996 15.0001C19.0996 14.503 19.5026 14.1001 19.9996 14.1001C20.4967 14.1001 20.8996 14.503 20.8996 15.0001C20.8996 15.0366 20.8996 15.0726 20.8997 15.1081C20.8998 15.9335 20.8999 16.4812 20.8055 16.956C20.4188 18.8998 18.8994 20.4193 16.9556 20.8059C16.4808 20.9004 15.9331 20.9003 15.1077 20.9001C15.0722 20.9001 15.0362 20.9001 14.9996 20.9001H8.99964C8.96309 20.9001 8.92707 20.9001 8.89157 20.9001C8.06621 20.9003 7.51852 20.9004 7.0437 20.8059C5.09991 20.4193 3.58043 18.8998 3.19379 16.956C3.09934 16.4812 3.09945 15.9335 3.09962 15.1081C3.09963 15.0726 3.09964 15.0366 3.09964 15.0001C3.09964 14.503 3.50258 14.1001 3.99964 14.1001Z" fill="white"/>
</svg>
