<svg width="24" height="24" viewBox="0 0 24 24" fill="none" xmlns="http://www.w3.org/2000/svg">
<path fill-rule="evenodd" clip-rule="evenodd" d="M13.1735 3.59686C13.8659 3.20476 14.6856 3.10375 15.4524 3.31604C15.7924 3.41017 16.0829 3.57415 16.3568 3.75936C16.6168 3.93526 16.9152 4.16815 17.2609 4.43805L17.3114 4.47744C17.6572 4.74734 17.9555 4.98022 18.1893 5.18983C18.4355 5.41052 18.6651 5.65254 18.8389 5.95951C19.231 6.65184 19.332 7.47157 19.1197 8.23837C19.0256 8.57837 18.8616 8.86889 18.6764 9.14273C18.5005 9.40282 18.2676 9.70118 17.9977 10.047L10.8949 19.1463C10.877 19.1693 10.8592 19.192 10.8417 19.2144C10.5083 19.642 10.2562 19.9652 9.94414 20.2307C9.67999 20.4554 9.38774 20.6448 9.07475 20.7941C8.70498 20.9705 8.30696 21.0686 7.78047 21.1983C7.75287 21.2051 7.72492 21.212 7.69659 21.219L5.57178 21.7436C5.42463 21.78 5.25665 21.8215 5.10848 21.8443C4.94331 21.8697 4.68752 21.8927 4.40502 21.8022C4.06542 21.6935 3.77567 21.4673 3.58773 21.1642C3.43139 20.9122 3.39161 20.6584 3.37613 20.4921C3.36225 20.3428 3.36176 20.1697 3.36133 20.0182C3.36131 20.0088 3.36128 19.9995 3.36125 19.9903L3.35438 17.8296C3.35429 17.8004 3.35418 17.7716 3.35408 17.7432C3.35214 17.2009 3.35066 16.791 3.43203 16.3895C3.50091 16.0496 3.61369 15.7201 3.76755 15.4093C3.94931 15.0422 4.20167 14.7191 4.53549 14.2918C4.553 14.2694 4.57073 14.2467 4.58868 14.2237L11.6915 5.12441C11.9614 4.77862 12.1943 4.48025 12.4039 4.24646C12.6245 4.00031 12.8666 3.77071 13.1735 3.59686ZM14.9188 5.24354C14.6632 5.17277 14.3899 5.20644 14.1591 5.33714C14.1199 5.35934 14.0455 5.41141 13.893 5.58156C13.7344 5.75842 13.5435 6.00217 13.2483 6.38024L16.4015 8.84152C16.6966 8.46344 16.8867 8.21902 17.0198 8.02227C17.1478 7.83297 17.1802 7.74815 17.1923 7.70474C17.263 7.44913 17.2293 7.17589 17.0986 6.94512C17.0764 6.90592 17.0244 6.83151 16.8542 6.67896C16.6774 6.52039 16.4336 6.32944 16.0555 6.03432C15.6775 5.7392 15.4331 5.5491 15.2363 5.41603C15.047 5.288 14.9622 5.25555 14.9188 5.24354ZM15.1708 10.4181L12.0177 7.9568L6.16524 15.4544C5.75549 15.9793 5.63993 16.135 5.55995 16.2966C5.48302 16.452 5.42663 16.6168 5.39219 16.7867C5.35638 16.9634 5.35225 17.1573 5.35437 17.8232L5.36045 19.7357L7.21723 19.2773C7.86374 19.1177 8.05083 19.0666 8.21355 18.989C8.37005 18.9143 8.51617 18.8196 8.64824 18.7073C8.78557 18.5905 8.9086 18.4406 9.31836 17.9156L15.1708 10.4181ZM11.9997 21.0001C11.9997 20.4478 12.4474 20.0001 12.9997 20.0001H19.9997C20.5519 20.0001 20.9997 20.4478 20.9997 21.0001C20.9997 21.5523 20.5519 22.0001 19.9997 22.0001H12.9997C12.4474 22.0001 11.9997 21.5523 11.9997 21.0001Z" fill="#353535"/>
</svg>
