<svg width="25" height="24" viewBox="0 0 25 24" fill="none" xmlns="http://www.w3.org/2000/svg">
<path fill-rule="evenodd" clip-rule="evenodd" d="M5.8783 2C5.8905 2 5.90273 2 5.915 2L8.12171 2C8.51734 1.99998 8.87336 1.99996 9.16942 2.02454C9.48657 2.05088 9.82336 2.11052 10.1524 2.28147C10.609 2.51866 10.9813 2.89096 11.2185 3.34757C11.3895 3.67665 11.4491 4.01343 11.4755 4.33059C11.5 4.62664 11.5 4.98265 11.5 5.37828V7.62172C11.5 8.01735 11.5 8.37337 11.4755 8.66942C11.4491 8.98657 11.3895 9.32336 11.2185 9.65244C10.9813 10.109 10.609 10.4813 10.1524 10.7185C9.82336 10.8895 9.48657 10.9491 9.16942 10.9755C8.87337 11 8.51735 11 8.12172 11H5.87828C5.48265 11 5.12664 11 4.83059 10.9755C4.51343 10.9491 4.17665 10.8895 3.84757 10.7185C3.39096 10.4813 3.01866 10.109 2.78147 9.65244C2.61052 9.32336 2.55088 8.98657 2.52454 8.66942C2.49996 8.37336 2.49998 8.01734 2.5 7.62171L2.5 5.415C2.5 5.40273 2.5 5.3905 2.5 5.3783C2.49998 4.98266 2.49996 4.62664 2.52454 4.33059C2.55088 4.01343 2.61052 3.67665 2.78147 3.34757C3.01866 2.89096 3.39096 2.51866 3.84757 2.28147C4.17665 2.11052 4.51343 2.05088 4.83059 2.02454C5.12664 1.99996 5.48266 1.99998 5.8783 2ZM4.77752 4.05297C4.77226 4.05488 4.76952 4.0563 4.76952 4.0563C4.67819 4.10373 4.60373 4.17819 4.5563 4.26952C4.5563 4.26952 4.55488 4.27226 4.55297 4.27752C4.55098 4.28299 4.54767 4.29312 4.54372 4.30961C4.53541 4.34427 4.52554 4.40145 4.51768 4.49611C4.50081 4.69932 4.5 4.9711 4.5 5.415V7.585C4.5 8.02891 4.50081 8.30068 4.51768 8.5039C4.52554 8.59855 4.53541 8.65574 4.54372 8.6904C4.54767 8.70688 4.55098 8.71701 4.55297 8.72249C4.55488 8.72775 4.5563 8.73049 4.5563 8.73049C4.60373 8.82181 4.67819 8.89627 4.76952 8.94371C4.76952 8.94371 4.77226 8.94513 4.77752 8.94704C4.78299 8.94903 4.79312 8.95234 4.80961 8.95629C4.84427 8.96459 4.90145 8.97446 4.99611 8.98232C5.19932 8.9992 5.4711 9 5.915 9H8.085C8.52891 9 8.80068 8.9992 9.0039 8.98232C9.09855 8.97446 9.15574 8.96459 9.1904 8.95629C9.20688 8.95234 9.21701 8.94903 9.22249 8.94704C9.22775 8.94513 9.23049 8.94371 9.23049 8.94371C9.32181 8.89627 9.39627 8.82181 9.44371 8.73049C9.44371 8.73049 9.44513 8.72775 9.44704 8.72249C9.44903 8.71701 9.45234 8.70688 9.45629 8.6904C9.46459 8.65574 9.47446 8.59855 9.48232 8.5039C9.4992 8.30068 9.5 8.02891 9.5 7.585V5.415C9.5 4.9711 9.4992 4.69932 9.48232 4.49611C9.47446 4.40145 9.46459 4.34427 9.45629 4.30961C9.45234 4.29312 9.44903 4.28299 9.44704 4.27752C9.44513 4.27226 9.44371 4.26952 9.44371 4.26952C9.39627 4.17819 9.32181 4.10373 9.23049 4.0563C9.23049 4.0563 9.22775 4.05488 9.22249 4.05297C9.21701 4.05098 9.20688 4.04767 9.1904 4.04372C9.15574 4.03541 9.09855 4.02554 9.0039 4.01768C8.80068 4.00081 8.52891 4 8.085 4H5.915C5.4711 4 5.19932 4.00081 4.99611 4.01768C4.90145 4.02554 4.84427 4.03541 4.80961 4.04372C4.79312 4.04767 4.78299 4.05098 4.77752 4.05297ZM16.8783 2H19.1217C19.5173 1.99998 19.8734 1.99996 20.1694 2.02454C20.4866 2.05088 20.8234 2.11052 21.1524 2.28147C21.609 2.51866 21.9813 2.89096 22.2185 3.34757C22.3895 3.67665 22.4491 4.01343 22.4755 4.33059C22.5 4.62665 22.5 4.98267 22.5 5.37832V7.62168C22.5 8.01733 22.5 8.37336 22.4755 8.66942C22.4491 8.98657 22.3895 9.32336 22.2185 9.65244C21.9813 10.109 21.609 10.4813 21.1524 10.7185C20.8234 10.8895 20.4866 10.9491 20.1694 10.9755C19.8734 11 19.5174 11 19.1217 11H16.8783C16.4827 11 16.1266 11 15.8306 10.9755C15.5134 10.9491 15.1766 10.8895 14.8476 10.7185C14.391 10.4813 14.0187 10.109 13.7815 9.65244C13.6105 9.32336 13.5509 8.98657 13.5245 8.66942C13.5 8.37337 13.5 8.01735 13.5 7.62172V5.37828C13.5 4.98265 13.5 4.62664 13.5245 4.33059C13.5509 4.01344 13.6105 3.67665 13.7815 3.34757C14.0187 2.89096 14.391 2.51866 14.8476 2.28147C15.1766 2.11052 15.5134 2.05088 15.8306 2.02454C16.1266 1.99996 16.4827 1.99998 16.8783 2ZM15.7775 4.05297C15.7723 4.05488 15.7695 4.0563 15.7695 4.0563C15.6782 4.10373 15.6037 4.17819 15.5563 4.26952C15.5563 4.26952 15.5549 4.27226 15.553 4.27752C15.551 4.28299 15.5477 4.29312 15.5437 4.30961C15.5354 4.34427 15.5255 4.40145 15.5177 4.49611C15.5008 4.69932 15.5 4.9711 15.5 5.415V7.585C15.5 8.02891 15.5008 8.30068 15.5177 8.5039C15.5255 8.59855 15.5354 8.65574 15.5437 8.6904C15.5477 8.70688 15.551 8.71701 15.553 8.72249C15.5549 8.72775 15.5563 8.73049 15.5563 8.73049C15.6037 8.82181 15.6782 8.89627 15.7695 8.94371C15.7695 8.94371 15.7723 8.94513 15.7775 8.94704C15.783 8.94903 15.7931 8.95234 15.8096 8.95629C15.8443 8.96459 15.9015 8.97446 15.9961 8.98232C16.1993 8.9992 16.4711 9 16.915 9H19.085C19.5289 9 19.8007 8.9992 20.0039 8.98232C20.0986 8.97446 20.1557 8.96459 20.1904 8.95629C20.2069 8.95234 20.217 8.94903 20.2225 8.94704C20.2277 8.94513 20.2305 8.94371 20.2305 8.94371C20.3218 8.89627 20.3963 8.82181 20.4437 8.73049C20.4437 8.73049 20.4451 8.72775 20.447 8.72249C20.449 8.71701 20.4523 8.70688 20.4563 8.6904C20.4646 8.65573 20.4745 8.59855 20.4823 8.5039C20.4992 8.30068 20.5 8.02891 20.5 7.585V5.415C20.5 4.9711 20.4992 4.69932 20.4823 4.49611C20.4745 4.40145 20.4646 4.34427 20.4563 4.30961C20.4523 4.29312 20.449 4.28299 20.447 4.27752C20.4451 4.27226 20.4437 4.26952 20.4437 4.26952C20.3963 4.17819 20.3218 4.10373 20.2305 4.0563C20.2305 4.0563 20.2277 4.05488 20.2225 4.05297C20.217 4.05098 20.2069 4.04767 20.1904 4.04372C20.1557 4.03541 20.0986 4.02554 20.0039 4.01768C19.8007 4.00081 19.5289 4 19.085 4H16.915C16.4711 4 16.1993 4.00081 15.9961 4.01768C15.9015 4.02554 15.8443 4.03541 15.8096 4.04372C15.7931 4.04767 15.783 4.05098 15.7775 4.05297ZM5.87828 13H8.12172C8.51735 13 8.87337 13 9.16942 13.0245C9.48657 13.0509 9.82336 13.1105 10.1524 13.2815C10.609 13.5187 10.9813 13.891 11.2185 14.3476C11.3895 14.6766 11.4491 15.0134 11.4755 15.3306C11.5 15.6266 11.5 15.9827 11.5 16.3783V18.6217C11.5 19.0174 11.5 19.3734 11.4755 19.6694C11.4491 19.9866 11.3895 20.3234 11.2185 20.6524C10.9813 21.109 10.609 21.4813 10.1524 21.7185C9.82336 21.8895 9.48657 21.9491 9.16942 21.9755C8.87336 22 8.51733 22 8.12168 22H5.87832C5.48267 22 5.12665 22 4.83059 21.9755C4.51343 21.9491 4.17665 21.8895 3.84757 21.7185C3.39096 21.4813 3.01866 21.109 2.78147 20.6524C2.61052 20.3234 2.55088 19.9866 2.52454 19.6694C2.49996 19.3734 2.49998 19.0173 2.5 18.6217V16.3783C2.49998 15.9827 2.49996 15.6266 2.52454 15.3306C2.55088 15.0134 2.61052 14.6766 2.78147 14.3476C3.01866 13.891 3.39096 13.5187 3.84757 13.2815C4.17665 13.1105 4.51344 13.0509 4.83059 13.0245C5.12664 13 5.48265 13 5.87828 13ZM4.77752 15.053C4.77226 15.0549 4.76952 15.0563 4.76952 15.0563C4.67819 15.1037 4.60373 15.1782 4.5563 15.2695C4.5563 15.2695 4.55488 15.2723 4.55297 15.2775C4.55098 15.283 4.54767 15.2931 4.54372 15.3096C4.53541 15.3443 4.52554 15.4015 4.51768 15.4961C4.50081 15.6993 4.5 15.9711 4.5 16.415V18.585C4.5 19.0289 4.50081 19.3007 4.51768 19.5039C4.52554 19.5986 4.53541 19.6557 4.54372 19.6904C4.54767 19.7069 4.55098 19.717 4.55297 19.7225C4.55488 19.7277 4.5563 19.7305 4.5563 19.7305C4.60373 19.8218 4.67819 19.8963 4.76952 19.9437C4.76952 19.9437 4.77226 19.9451 4.77752 19.947C4.78299 19.949 4.79312 19.9523 4.80961 19.9563C4.84427 19.9646 4.90145 19.9745 4.99611 19.9823C5.19932 19.9992 5.4711 20 5.915 20H8.085C8.52891 20 8.80068 19.9992 9.0039 19.9823C9.09855 19.9745 9.15573 19.9646 9.1904 19.9563C9.20688 19.9523 9.21701 19.949 9.22249 19.947C9.22775 19.9451 9.23049 19.9437 9.23049 19.9437C9.32181 19.8963 9.39627 19.8218 9.44371 19.7305C9.44371 19.7305 9.44513 19.7277 9.44704 19.7225C9.44903 19.717 9.45234 19.7069 9.45629 19.6904C9.46459 19.6557 9.47446 19.5986 9.48232 19.5039C9.4992 19.3007 9.5 19.0289 9.5 18.585V16.415C9.5 15.9711 9.4992 15.6993 9.48232 15.4961C9.47446 15.4015 9.46459 15.3443 9.45629 15.3096C9.45234 15.2931 9.44903 15.283 9.44704 15.2775C9.44513 15.2723 9.44371 15.2695 9.44371 15.2695C9.39627 15.1782 9.32181 15.1037 9.23049 15.0563L9.22861 15.0554C9.22861 15.0554 9.22536 15.054 9.22249 15.053C9.21701 15.051 9.20688 15.0477 9.1904 15.0437C9.15574 15.0354 9.09855 15.0255 9.0039 15.0177C8.80068 15.0008 8.52891 15 8.085 15H5.915C5.4711 15 5.19932 15.0008 4.99611 15.0177C4.90145 15.0255 4.84427 15.0354 4.80961 15.0437C4.79312 15.0477 4.78299 15.051 4.77752 15.053ZM16.8783 13H19.1217C19.5174 13 19.8734 13 20.1694 13.0245C20.4866 13.0509 20.8234 13.1105 21.1524 13.2815C21.609 13.5187 21.9813 13.891 22.2185 14.3476C22.3895 14.6766 22.4491 15.0134 22.4755 15.3306C22.5 15.6266 22.5 15.9827 22.5 16.3783V18.6217C22.5 19.0173 22.5 19.3734 22.4755 19.6694C22.4491 19.9866 22.3895 20.3234 22.2185 20.6524C21.9813 21.109 21.609 21.4813 21.1524 21.7185C20.8234 21.8895 20.4866 21.9491 20.1694 21.9755C19.8734 22 19.5173 22 19.1217 22H16.8783C16.4827 22 16.1266 22 15.8306 21.9755C15.5134 21.9491 15.1766 21.8895 14.8476 21.7185C14.391 21.4813 14.0187 21.109 13.7815 20.6524C13.6105 20.3234 13.5509 19.9866 13.5245 19.6694C13.5 19.3734 13.5 19.0174 13.5 18.6217V16.3783C13.5 15.9827 13.5 15.6266 13.5245 15.3306C13.5509 15.0134 13.6105 14.6766 13.7815 14.3476C14.0187 13.891 14.391 13.5187 14.8476 13.2815C15.1766 13.1105 15.5134 13.0509 15.8306 13.0245C16.1266 13 16.4827 13 16.8783 13ZM15.7775 15.053C15.7723 15.0549 15.7695 15.0563 15.7695 15.0563C15.6782 15.1037 15.6037 15.1782 15.5563 15.2695C15.5563 15.2695 15.5549 15.2723 15.553 15.2775C15.551 15.283 15.5477 15.2931 15.5437 15.3096C15.5354 15.3443 15.5255 15.4015 15.5177 15.4961C15.5008 15.6993 15.5 15.9711 15.5 16.415V18.585C15.5 19.0289 15.5008 19.3007 15.5177 19.5039C15.5255 19.5986 15.5354 19.6557 15.5437 19.6904C15.5477 19.7069 15.551 19.717 15.553 19.7225C15.5549 19.7277 15.5563 19.7305 15.5563 19.7305C15.6037 19.8218 15.6782 19.8963 15.7695 19.9437C15.7695 19.9437 15.7723 19.9451 15.7775 19.947C15.783 19.949 15.7931 19.9523 15.8096 19.9563C15.8443 19.9646 15.9015 19.9745 15.9961 19.9823C16.1993 19.9992 16.4711 20 16.915 20H19.085C19.5289 20 19.8007 19.9992 20.0039 19.9823C20.0986 19.9745 20.1557 19.9646 20.1904 19.9563C20.2069 19.9523 20.217 19.949 20.2225 19.947C20.2277 19.9451 20.2305 19.9437 20.2305 19.9437C20.3218 19.8963 20.3963 19.8218 20.4437 19.7305C20.4437 19.7305 20.4451 19.7277 20.447 19.7225C20.449 19.717 20.4523 19.7069 20.4563 19.6904C20.4646 19.6557 20.4745 19.5986 20.4823 19.5039C20.4992 19.3007 20.5 19.0289 20.5 18.585V16.415C20.5 15.9711 20.4992 15.6993 20.4823 15.4961C20.4745 15.4015 20.4646 15.3443 20.4563 15.3096C20.4523 15.2931 20.449 15.283 20.447 15.2775C20.4463 15.2756 20.4453 15.2729 20.4453 15.2729C20.4444 15.2709 20.4437 15.2695 20.4437 15.2695C20.3963 15.1782 20.3218 15.1037 20.2305 15.0563C20.2305 15.0563 20.2277 15.0549 20.2225 15.053C20.217 15.051 20.2069 15.0477 20.1904 15.0437C20.1557 15.0354 20.0986 15.0255 20.0039 15.0177C19.8007 15.0008 19.5289 15 19.085 15H16.915C16.4711 15 16.1993 15.0008 15.9961 15.0177C15.9015 15.0255 15.8443 15.0354 15.8096 15.0437C15.7931 15.0477 15.783 15.051 15.7775 15.053Z" fill="#353535"/>
</svg>
