<svg width="20" height="20" viewBox="0 0 20 20" fill="none" xmlns="http://www.w3.org/2000/svg">
<path d="M7.08317 8.33333C7.77353 8.33333 8.33317 7.77369 8.33317 7.08333C8.33317 6.39297 7.77353 5.83333 7.08317 5.83333C6.39281 5.83333 5.83317 6.39297 5.83317 7.08333C5.83317 7.77369 6.39281 8.33333 7.08317 8.33333Z" fill="#353535"/>
<path fill-rule="evenodd" clip-rule="evenodd" d="M9.17108 1.66666H10.8286C11.9836 1.66666 12.9022 1.66665 13.6428 1.72816C14.4014 1.79116 15.0477 1.92295 15.638 2.2296C16.5513 2.70397 17.2959 3.44858 17.7702 4.36179C18.0769 4.9521 18.2087 5.59842 18.2717 6.35699C18.3332 7.09766 18.3332 8.01621 18.3332 9.17119V10.8287C18.3332 11.4045 18.3332 11.9217 18.3256 12.3872C18.3372 12.4731 18.3355 12.5605 18.3204 12.6459C18.3116 13.0104 18.2967 13.3414 18.2717 13.643C18.2087 14.4016 18.0769 15.0479 17.7702 15.6382C17.2959 16.5514 16.5513 17.296 15.638 17.7704C15.0477 18.077 14.4014 18.2088 13.6428 18.2718C12.9022 18.3333 11.9836 18.3333 10.8286 18.3333H9.17111C8.01613 18.3333 7.0975 18.3333 6.35683 18.2718C5.59826 18.2088 4.95194 18.077 4.36163 17.7704C3.6988 17.4261 3.1248 16.9394 2.67848 16.3492C2.67003 16.3385 2.66187 16.3276 2.65401 16.3166C2.4953 16.1031 2.35318 15.8764 2.22944 15.6382C1.92279 15.0479 1.791 14.4016 1.728 13.643C1.66649 12.9023 1.6665 11.9838 1.6665 10.8288V9.17124C1.6665 8.01624 1.66649 7.09767 1.728 6.35699C1.791 5.59842 1.92279 4.9521 2.22944 4.36179C2.70381 3.44858 3.44842 2.70397 4.36163 2.2296C4.95194 1.92295 5.59826 1.79116 6.35683 1.72816C7.09751 1.66665 8.01608 1.66666 9.17108 1.66666ZM16.6665 9.20833V10.4265L15.5107 9.22083C14.8522 8.53392 13.7532 8.53684 13.0983 9.22722L9.2092 13.3274L7.92932 11.7799C7.24422 10.9516 5.96573 10.9788 5.31657 11.8356L3.49185 14.244C3.44719 14.0386 3.41322 13.7973 3.38895 13.5051C3.33384 12.8415 3.33317 11.9921 3.33317 10.7917V9.20833C3.33317 8.00791 3.33384 7.15854 3.38895 6.49493C3.44323 5.84129 3.54599 5.44285 3.70846 5.13008C4.02471 4.52127 4.52111 4.02487 5.12992 3.70862C5.44269 3.54615 5.84113 3.44339 6.49477 3.38911C7.15838 3.334 8.00774 3.33333 9.20817 3.33333H10.7915C11.9919 3.33333 12.8413 3.334 13.5049 3.38911C14.1585 3.44339 14.557 3.54615 14.8698 3.70862C15.4786 4.02487 15.975 4.52127 16.2912 5.13008C16.4537 5.44285 16.5564 5.84129 16.6107 6.49493C16.6658 7.15854 16.6665 8.00791 16.6665 9.20833ZM5.12992 16.2914C4.86815 16.1554 4.62716 15.9861 4.41234 15.7889L6.645 12.8421L7.92488 14.3896C8.56228 15.1603 9.73016 15.2 10.4184 14.4744L14.3075 10.3742L16.6483 12.816C16.6401 13.0676 16.6281 13.2956 16.6107 13.5051C16.5564 14.1587 16.4537 14.5571 16.2912 14.8699C15.975 15.4787 15.4786 15.9751 14.8698 16.2914C14.557 16.4538 14.1585 16.5566 13.5049 16.6109C12.8413 16.666 11.9919 16.6667 10.7915 16.6667H9.20817C8.00774 16.6667 7.15838 16.666 6.49477 16.6109C5.84113 16.5566 5.44269 16.4538 5.12992 16.2914Z" fill="#353535"/>
</svg>
