<svg width="17" height="19" viewBox="0 0 17 19" fill="none" xmlns="http://www.w3.org/2000/svg">
<path fill-rule="evenodd" clip-rule="evenodd" d="M8.5 2C6.84315 2 5.5 3.34315 5.5 5C5.5 6.65685 6.84315 8 8.5 8C10.1569 8 11.5 6.65685 11.5 5C11.5 3.34315 10.1569 2 8.5 2ZM3.5 5C3.5 2.23858 5.73858 0 8.5 0C11.2614 0 13.5 2.23858 13.5 5C13.5 7.76142 11.2614 10 8.5 10C5.73858 10 3.5 7.76142 3.5 5ZM3.95609 13.7264C2.90184 14.1946 2.5 14.7858 2.5 15.5C2.5 15.7236 2.53976 15.8502 2.59728 15.942C2.65483 16.0338 2.79214 16.1893 3.16219 16.3567C3.95312 16.7145 5.51609 17 8.5 17C11.4839 17 13.0469 16.7145 13.8378 16.3567C14.2079 16.1893 14.3452 16.0338 14.4027 15.942C14.4602 15.8502 14.5 15.7236 14.5 15.5C14.5 14.7858 14.0982 14.1946 13.0439 13.7264C11.9614 13.2458 10.3722 13 8.5 13C6.62784 13 5.03857 13.2458 3.95609 13.7264ZM3.14442 11.8986C4.59544 11.2542 6.50617 11 8.5 11C10.4938 11 12.4046 11.2542 13.8556 11.8986C15.3348 12.5554 16.5 13.7142 16.5 15.5C16.5 15.9667 16.4148 16.4978 16.0973 17.0043C15.7798 17.5106 15.2921 17.8939 14.6622 18.1789C13.4531 18.7259 11.5161 19 8.5 19C5.48391 19 3.54688 18.7259 2.33781 18.1789C1.70786 17.8939 1.22017 17.5106 0.902722 17.0043C0.585241 16.4978 0.5 15.9667 0.5 15.5C0.5 13.7142 1.66516 12.5554 3.14442 11.8986Z" fill="#D2D2D2"/>
</svg>
