<svg width="20" height="20" viewBox="0 0 20 20" fill="none" xmlns="http://www.w3.org/2000/svg">
<path d="M9.29015 11.6592L6.23743 14.2916C5.8689 14.5981 5.39978 14.7462 4.92888 14.7046C4.45799 14.6631 4.02206 14.4351 3.71292 14.0687C3.56178 13.8838 3.44778 13.6697 3.37748 13.4389C3.30717 13.2081 3.28195 12.9651 3.30325 12.7238C3.32455 12.4824 3.39195 12.2476 3.50159 12.0327C3.61124 11.8177 3.76096 11.627 3.94217 11.4714L6.9949 8.83897C7.14305 8.71121 7.23609 8.52842 7.25353 8.33079C7.27097 8.13317 7.2114 7.9369 7.08791 7.78517C6.96442 7.63344 6.78714 7.53868 6.59506 7.52172C6.40298 7.50477 6.21184 7.56702 6.06368 7.69477L3.0103 10.3346C2.39079 10.9162 2.01252 11.7204 1.9545 12.5791C1.89648 13.4379 2.1632 14.2848 2.69894 14.9431C3.23469 15.6014 3.99804 16.0201 4.82958 16.1118C5.66113 16.2034 6.49657 15.961 7.16143 15.4351L10.2214 12.8034C10.3695 12.6756 10.4626 12.4928 10.48 12.2952C10.4974 12.0976 10.4379 11.9013 10.3144 11.7496C10.1909 11.5978 10.0136 11.5031 9.82153 11.4861C9.62945 11.4692 9.43831 11.5314 9.29015 11.6592ZM16.27 3.24069C15.718 2.56674 14.9281 2.14609 14.0726 2.07059C13.2172 1.99509 12.3658 2.27087 11.7043 2.83771L8.64434 5.46946C8.57098 5.53272 8.51038 5.61015 8.46601 5.69734C8.42163 5.78454 8.39435 5.87978 8.38571 5.97763C8.37707 6.07549 8.38726 6.17404 8.41567 6.26766C8.44409 6.36127 8.49019 6.44813 8.55133 6.52325C8.61248 6.59838 8.68747 6.66032 8.77203 6.70552C8.8566 6.75072 8.94907 6.77831 9.04418 6.7867C9.13929 6.7951 9.23517 6.78414 9.32634 6.75444C9.41751 6.72475 9.5022 6.67691 9.57556 6.61365L12.6283 3.98127C12.9968 3.67472 13.4659 3.52664 13.9368 3.5682C14.4077 3.60976 14.8436 3.83773 15.1528 4.20409C15.3039 4.38906 15.4179 4.60309 15.4882 4.83389C15.5585 5.0647 15.5838 5.30773 15.5625 5.54906C15.5412 5.79038 15.4738 6.02524 15.3641 6.24016C15.2545 6.45509 15.1047 6.64584 14.9235 6.80147L11.8708 9.43386C11.7971 9.49688 11.7362 9.57422 11.6916 9.66142C11.647 9.74862 11.6196 9.84396 11.6109 9.94192C11.6023 10.0399 11.6126 10.1386 11.6412 10.2322C11.6699 10.3259 11.7163 10.4127 11.7778 10.4877C11.8387 10.5631 11.9136 10.6254 11.9982 10.6708C12.0828 10.7162 12.1753 10.744 12.2705 10.7524C12.3658 10.7608 12.4617 10.7497 12.553 10.7198C12.6442 10.6899 12.7288 10.6417 12.802 10.5781L15.8554 7.93825C16.5135 7.36719 16.9265 6.55269 17.0041 5.67256C17.0818 4.79244 16.8179 3.91819 16.27 3.24069ZM6.93874 11.2871C7.00007 11.3618 7.0752 11.4233 7.15982 11.468C7.24444 11.5127 7.33689 11.5397 7.43186 11.5475C7.52674 11.5565 7.62249 11.546 7.71363 11.5169C7.80477 11.4877 7.8895 11.4403 7.96297 11.3775L11.834 8.03953C11.9821 7.91177 12.0751 7.72897 12.0926 7.53135C12.11 7.33372 12.0505 7.13746 11.927 6.98573C11.8035 6.834 11.6262 6.73923 11.4341 6.72228C11.242 6.70533 11.0509 6.76757 10.9027 6.89533L7.03175 10.2333C6.95806 10.2963 6.89716 10.3737 6.85256 10.4609C6.80796 10.5481 6.78054 10.6434 6.77189 10.7414C6.76325 10.8393 6.77354 10.938 6.80218 11.0317C6.83081 11.1253 6.87723 11.2121 6.93874 11.2871Z" fill="#353535"/>
</svg>
