<svg width="25" height="24" viewBox="0 0 25 24" fill="none"
  xmlns="http://www.w3.org/2000/svg">
  <path fill-rule="evenodd" clip-rule="evenodd" d="M16.8138 4.01233C16.667 4.00078 16.4833 4 16 4H11.55C10.1095 4 9.09025 4.00081 8.29391 4.06694C7.50955 4.13208 7.03142 4.25539 6.6561 4.45035C5.92553 4.82985 5.32985 5.42553 4.95035 6.15611C4.75538 6.53142 4.63207 7.00955 4.56694 7.79392C4.5008 8.59026 4.5 9.60949 4.5 11.05V16.5C4.5 18.433 6.067 20 8 20H10.5556C11.0772 20 11.5 19.5772 11.5 19.0556V18.5C11.5 15.4624 13.9624 13 17 13C18.933 13 20.5 11.433 20.5 9.5V8.5C20.5 8.01668 20.4992 7.83297 20.4877 7.68617C20.3333 5.72466 18.7753 4.16671 16.8138 4.01233ZM22.5 11.6404C22.5 12.2412 22.5 12.599 22.4734 12.9447C22.305 15.1287 21.346 17.1763 19.776 18.7037C19.5275 18.9455 19.2526 19.1746 18.791 19.5592L18.7292 19.6107C18.3691 19.9108 18.1545 20.0896 17.933 20.2524C16.5389 21.2769 14.8791 21.8778 13.1524 21.9833C12.878 22 12.5986 22 12.13 22H8C4.96243 22 2.5 19.5376 2.5 16.5L2.5 11.0055C2.49999 9.61949 2.49999 8.51721 2.5738 7.6284C2.64939 6.71812 2.80755 5.94253 3.17552 5.23416C3.74477 4.1383 4.63829 3.24478 5.73415 2.67552C6.44253 2.30755 7.21811 2.1494 8.12839 2.0738C9.01721 1.99999 10.1195 2 11.5055 2L16.0498 2C16.4665 1.99997 16.7351 1.99996 16.9708 2.0185C19.913 2.25006 22.2499 4.58699 22.4815 7.52925C22.5 7.76488 22.5 8.03357 22.5 8.45022L22.5 11.6404ZM13.3588 19.9592C14.5832 19.8263 15.7531 19.3724 16.7487 18.6408C16.9151 18.5185 17.0809 18.3809 17.4757 18.0519C17.9824 17.6296 18.1947 17.4518 18.3814 17.2702C19.3329 16.3445 19.9959 15.1731 20.3042 13.8973C19.3842 14.5896 18.24 15 17 15C15.067 15 13.5 16.567 13.5 18.5V19.0556C13.5 19.3708 13.4505 19.6744 13.3588 19.9592Z" fill="#353535"/>
</svg>
