<svg width="24" height="24" viewBox="0 0 24 24" fill="none" xmlns="http://www.w3.org/2000/svg">
<path fill-rule="evenodd" clip-rule="evenodd" d="M7.00016 7C7.00016 4.23858 9.23874 2 12.0002 2C14.7616 2 17.0002 4.23858 17.0002 7V11C17.0002 13.7614 14.7616 16 12.0002 16C9.23874 16 7.00016 13.7614 7.00016 11V7ZM12.0002 4C10.3433 4 9.00016 5.34315 9.00016 7V11C9.00016 12.6569 10.3433 14 12.0002 14C13.657 14 15.0002 12.6569 15.0002 11V7C15.0002 5.34315 13.657 4 12.0002 4ZM4.49495 14.137C4.97157 13.858 5.58413 14.0182 5.86316 14.4948C7.08989 16.5903 9.37767 18 12.0002 18C14.6227 18 16.9104 16.5903 18.1372 14.4948C18.4162 14.0182 19.0288 13.858 19.5054 14.137C19.982 14.416 20.1422 15.0286 19.8632 15.5052C18.448 17.9225 15.9332 19.6272 13.0002 19.946V22C13.0002 22.5523 12.5524 23 12.0002 23C11.4479 23 11.0002 22.5523 11.0002 22V19.946C8.06712 19.6272 5.5523 17.9225 4.13717 15.5052C3.85815 15.0286 4.01833 14.416 4.49495 14.137Z" fill="#FF6D75"/>
</svg>
