<svg width="24" height="24" viewBox="0 0 24 24" fill="none" xmlns="http://www.w3.org/2000/svg">
<path fill-rule="evenodd" clip-rule="evenodd" d="M1 18.5089C1 13.168 4.90169 8.77104 9.99995 7.84604V5.51125C9.99995 3.63893 12.1534 2.5857 13.6313 3.7352L21.9742 10.224C23.1323 11.1248 23.1324 12.8753 21.9742 13.7761L13.6314 20.2649C12.1534 21.4144 10 20.3612 10 18.4889V16.5189C7.74106 16.9525 5.9625 18.1158 4.92778 19.6838C4.33222 20.5864 3.30568 20.7735 2.55965 20.5636C1.80473 20.3512 1.00011 19.6307 1 18.5089ZM12.4034 5.31391C12.2392 5.18619 11.9999 5.30321 11.9999 5.51125V9.41678C11.9999 9.55485 11.8873 9.66644 11.7493 9.67014C8.09094 9.76842 4.97774 12.0115 3.66558 15.1656C3.46812 15.6402 3.31145 16.1355 3.19984 16.6472C3.07554 17.217 3.00713 17.8073 3.00053 18.4121C3.00018 18.4443 3 18.4766 3 18.5089C3.00001 18.6437 3.18418 18.6949 3.25846 18.5823C3.27467 18.5577 3.29101 18.5332 3.30747 18.5089C3.30746 18.5089 3.30748 18.5089 3.30747 18.5089C3.63446 18.0245 4.01059 17.5765 4.42994 17.1681C4.71487 16.8906 5.01975 16.6313 5.34276 16.3913C7.05882 15.1158 9.28642 14.3824 11.7496 14.3358C11.8877 14.3332 12 14.4454 12 14.5834V18.4889C12 18.6969 12.2393 18.814 12.4035 18.6862L20.7463 12.1974C20.875 12.0973 20.875 11.9028 20.7463 11.8027L12.4034 5.31391Z" fill="#353535"/>
</svg>
