<svg width="24" height="24" viewBox="0 0 24 24" fill="none" xmlns="http://www.w3.org/2000/svg">
<path fill-rule="evenodd" clip-rule="evenodd" d="M10.1633 2.73727C10.8575 1.12534 13.143 1.12534 13.8371 2.73727L15.4232 6.42017C15.5679 6.75635 15.8848 6.98657 16.2493 7.02037L20.242 7.39069C21.9896 7.55277 22.6958 9.72639 21.3773 10.8847L18.3647 13.5312C18.0898 13.7727 17.9687 14.1453 18.0492 14.5023L18.9308 18.4141C19.3167 20.1262 17.4677 21.4696 15.9587 20.5735L12.5108 18.5262C12.1961 18.3393 11.8044 18.3393 11.4897 18.5262L8.04178 20.5735C6.53272 21.4696 4.68373 20.1262 5.0696 18.4141L5.95124 14.5023C6.03171 14.1453 5.91068 13.7727 5.63569 13.5312L2.62315 10.8847C1.30463 9.72639 2.01088 7.55277 3.75842 7.39069L7.75118 7.02037C8.11564 6.98657 8.43251 6.75635 8.57729 6.42017L10.1633 2.73727ZM13.5862 7.21123L12.0002 3.52832L10.4142 7.21123C9.97988 8.21975 9.02926 8.91042 7.93588 9.01182L3.94312 9.38214L6.95567 12.0286C7.78062 12.7533 8.14373 13.8708 7.9023 14.942L7.02066 18.8538L10.4685 16.8065C11.4127 16.2459 12.5877 16.2459 13.5319 16.8065L16.9798 18.8538L16.0981 14.942C15.8567 13.8708 16.2198 12.7533 17.0448 12.0286L20.0573 9.38214L16.0646 9.01182C14.9712 8.91042 14.0206 8.21975 13.5862 7.21123Z" fill="#FF6D75"/>
</svg>
