<svg width="24" height="24" viewBox="0 0 24 24" fill="none" xmlns="http://www.w3.org/2000/svg">
<path fill-rule="evenodd" clip-rule="evenodd" d="M2.05957 10.8927C2.59741 5.90964 6.7293 2 11.7877 2C14.6475 2 17.215 3.25301 19.0002 5.23997V4C19.0002 3.44772 19.4479 3 20.0002 3C20.5524 3 21.0002 3.44772 21.0002 4V8C21.0002 8.26522 20.8948 8.51957 20.7073 8.70711C20.5197 8.89464 20.2654 9 20.0002 9L16.0002 9C15.4479 9 15.0002 8.55228 15.0002 8C15.0002 7.44771 15.4479 7 16.0002 7L17.8672 7C16.4353 5.16504 14.2404 4 11.7877 4C7.79973 4 4.48158 7.09046 4.04802 11.1073C3.98875 11.6564 3.49558 12.0535 2.94648 11.9942C2.39739 11.935 2.0003 11.4418 2.05957 10.8927ZM21.0539 12.0058C21.603 12.065 22.0001 12.5582 21.9408 13.1073C21.403 18.0904 17.2711 22 12.2127 22C9.3528 22 6.78535 20.747 5.00016 18.76V20C5.00016 20.5523 4.55245 21 4.00016 21C3.44788 21 3.00016 20.5523 3.00016 20L3.00016 16C3.00016 15.7348 3.10552 15.4804 3.29306 15.2929C3.48059 15.1054 3.73495 15 4.00016 15L8.00016 15C8.55245 15 9.00016 15.4477 9.00016 16C9.00016 16.5523 8.55245 17 8.00016 17H6.13315C7.56504 18.835 9.75993 20 12.2127 20C16.2006 20 19.5188 16.9095 19.9523 12.8927C20.0116 12.3436 20.5048 11.9465 21.0539 12.0058Z" fill="#FF6D75"/>
</svg>
