<svg width="20" height="20" viewBox="0 0 20 20" fill="none" xmlns="http://www.w3.org/2000/svg">
<path d="M6.66673 7.50006C7.12696 7.50006 7.50006 7.12696 7.50006 6.66673C7.50006 6.20649 7.12696 5.83339 6.66673 5.83339C6.20649 5.83339 5.83339 6.20649 5.83339 6.66673C5.83339 7.12696 6.20649 7.50006 6.66673 7.50006Z" fill="#353535"/>
<path fill-rule="evenodd" clip-rule="evenodd" d="M10.1363 1.71559C9.70873 1.63506 9.26906 1.66912 8.69184 1.71385L6.2488 1.90181C5.67389 1.94602 5.19543 1.98282 4.80403 2.04356C4.3949 2.10705 4.01944 2.20472 3.66518 2.40243C3.13533 2.69813 2.69813 3.13533 2.40243 3.66518C2.20472 4.01944 2.10705 4.39489 2.04356 4.80403C1.98282 5.19543 1.94602 5.6739 1.90181 6.2488L1.71385 8.69184C1.66912 9.26906 1.63506 9.70873 1.71559 10.1363C1.78365 10.4976 1.9121 10.8448 2.09555 11.1634C2.31264 11.5404 2.62464 11.8521 3.03425 12.2612L7.21225 16.4392C7.64003 16.867 7.99392 17.2209 8.30493 17.4881C8.62795 17.7656 8.9548 17.9949 9.34271 18.136C10.0657 18.3992 10.8582 18.3992 11.5811 18.136C11.9691 17.9949 12.2959 17.7656 12.6189 17.4881C12.9299 17.2209 13.2838 16.867 13.7116 16.4392L16.4392 13.7116C16.867 13.2838 17.2209 12.9299 17.4881 12.6189C17.7656 12.2959 17.9949 11.9691 18.136 11.5811C18.3992 10.8582 18.3992 10.0657 18.136 9.34271C17.9949 8.9548 17.7656 8.62795 17.4881 8.30493C17.2209 7.99391 16.867 7.64001 16.4391 7.21221L12.2612 3.03425C11.8521 2.62464 11.5404 2.31264 11.1634 2.09555C10.8448 1.9121 10.4976 1.78365 10.1363 1.71559ZM8.72507 3.38292C9.4392 3.32798 9.64439 3.31892 9.82774 3.35346C10.005 3.38685 10.1754 3.44988 10.3317 3.53989C10.4934 3.63299 10.6433 3.77341 11.1498 4.27988L15.2383 8.36838C15.6941 8.82419 16.0028 9.13364 16.224 9.39109C16.4395 9.64192 16.5261 9.79255 16.5699 9.91275C16.699 10.2675 16.699 10.6564 16.5699 11.0111C16.5261 11.1313 16.4395 11.2819 16.224 11.5328C16.0028 11.7902 15.6941 12.0997 15.2383 12.5555L12.5555 15.2383C12.0997 15.6941 11.7902 16.0028 11.5328 16.224C11.2819 16.4395 11.1313 16.5261 11.0111 16.5699C10.6564 16.699 10.2675 16.699 9.91275 16.5699C9.79255 16.5261 9.64193 16.4395 9.39109 16.224C9.13364 16.0028 8.82419 15.6941 8.36838 15.2383L4.27988 11.1498C3.77341 10.6433 3.63299 10.4934 3.53989 10.3317C3.44988 10.1754 3.38685 10.005 3.35346 9.82774C3.31892 9.64439 3.32798 9.4392 3.38292 8.72507L3.56113 6.40827C3.60841 5.79366 3.64083 5.37977 3.69051 5.05961C3.73856 4.75002 3.79453 4.59075 3.85779 4.4774C4.00289 4.21741 4.21741 4.00289 4.4774 3.85779C4.59075 3.79453 4.75002 3.73856 5.05961 3.69051C5.37977 3.64083 5.79366 3.60841 6.40827 3.56113L8.72507 3.38292Z" fill="#353535"/>
</svg>
