<svg width="25" height="24" viewBox="0 0 25 24" fill="none" xmlns="http://www.w3.org/2000/svg">
<path fill-rule="evenodd" clip-rule="evenodd" d="M12.667 3C12.9322 3 13.1866 3.10536 13.3741 3.29289L17.3741 7.29289C17.7647 7.68342 17.7647 8.31658 17.3741 8.70711C16.9836 9.09763 16.3504 9.09763 15.9599 8.70711L13.667 6.41421L13.667 15C13.667 15.5523 13.2193 16 12.667 16C12.1147 16 11.667 15.5523 11.667 15L11.667 6.41421L9.37414 8.70711C8.98361 9.09763 8.35045 9.09763 7.95992 8.70711C7.5694 8.31658 7.5694 7.68342 7.95992 7.29289L11.9599 3.29289C12.1475 3.10536 12.4018 3 12.667 3ZM4.66703 14C5.21931 14 5.66703 14.4477 5.66703 15C5.66703 15.9772 5.67187 16.3198 5.72467 16.5853C5.96139 17.7753 6.89169 18.7056 8.08176 18.9424C8.34721 18.9952 8.68979 19 9.66703 19H15.667C16.6443 19 16.9869 18.9952 17.2523 18.9424C18.4424 18.7056 19.3727 17.7753 19.6094 16.5853C19.6622 16.3198 19.667 15.9772 19.667 15C19.667 14.4477 20.1147 14 20.667 14C21.2193 14 21.667 14.4477 21.667 15C21.667 15.0392 21.667 15.0777 21.667 15.1157C21.6672 15.9334 21.6674 16.4906 21.571 16.9755C21.1764 18.9589 19.6259 20.5094 17.6425 20.9039C17.1577 21.0004 16.6004 21.0002 15.7828 21C15.7448 21 15.7062 21 15.667 21H9.66703C9.62786 21 9.58927 21 9.55125 21C8.73366 21.0002 8.17638 21.0004 7.69158 20.9039C5.70812 20.5094 4.15764 18.9589 3.7631 16.9755C3.66667 16.4906 3.66681 15.9334 3.66701 15.1158C3.66702 15.0777 3.66703 15.0392 3.66703 15C3.66703 14.4477 4.11474 14 4.66703 14Z" fill="#353535"/>
</svg>
